<svg width="73" height="59" viewBox="0 0 73 59" fill="none" xmlns="http://www.w3.org/2000/svg">
<circle cx="30.5165" cy="25.9325" r="25.9325" fill="#EACEFF"/>
<path d="M70.4915 17.9657C69.8977 17.6346 69.3876 17.3662 68.8956 17.0714C68.0592 16.5748 67.2563 16.0488 66.6904 15.2454C66.117 14.4297 66.0524 13.5786 66.5759 12.7571C66.8981 12.2532 67.3628 11.834 67.7796 11.3922C67.9436 11.2203 68.161 11.0896 68.4435 10.8687C67.902 10.8406 67.4763 10.8249 67.0517 10.7922C66.0139 10.7166 64.972 10.6813 63.9456 10.5396C62.538 10.3521 61.9062 9.48704 62.1535 8.14314C62.2508 7.61623 62.4842 7.10685 62.6619 6.59011C62.7163 6.43503 62.7934 6.2892 62.8728 6.10946C61.9279 6.3852 61.0338 6.66014 60.1353 6.89945C58.0379 7.45648 57.2577 6.0258 57.4574 4.59387C57.5107 4.2109 57.6639 3.83275 57.8067 3.46576C57.9109 3.22339 58.1374 3.06057 58.4166 3.17333C58.6706 3.27276 58.6815 3.51697 58.6214 3.75681C58.5655 3.99429 58.4919 4.23069 58.4649 4.46863C58.4337 4.74692 58.405 5.02928 58.4314 5.30849C58.5074 6.09353 58.9131 6.42489 59.7332 6.31038C60.3122 6.23079 60.8816 6.06942 61.4449 5.91685C61.9691 5.77496 62.4895 5.60797 63.0099 5.44097C63.279 5.35802 63.553 5.28322 63.7848 5.48735C64.0517 5.72112 63.9459 6.0079 63.8497 6.27302C63.7294 6.61129 63.557 6.92932 63.4569 7.27276C63.3248 7.70458 63.2019 8.14219 63.1434 8.58246C63.0659 9.18 63.2657 9.47249 63.877 9.62533C64.4613 9.77128 65.0682 9.88849 65.671 9.94261C66.9632 10.0522 68.2526 10.1198 69.5464 10.185C69.8526 10.2012 70.0979 10.2674 70.2021 10.5527C70.3032 10.8234 70.1406 11.0164 69.9252 11.1786C69.5407 11.4665 69.1378 11.7429 68.7699 12.0489C68.4484 12.3185 68.1233 12.6009 67.8603 12.9199C67.155 13.7708 67.1902 14.4696 67.9148 15.2998C68.4585 15.9251 69.1119 16.4301 69.831 16.8554C70.3481 17.1634 70.8853 17.4387 71.4121 17.7252C71.6914 17.8759 71.98 18.0325 71.9235 18.4008C71.8657 18.7482 71.5588 18.8629 71.2531 18.9606C71.1228 18.9997 70.987 19.0201 70.8536 19.0447C70.5843 19.0896 70.3139 19.1516 70.0409 19.1714C68.0114 19.332 67.0024 20.557 66.4935 22.2789C66.4007 22.5966 66.4115 22.9442 66.3861 23.2792C66.3722 23.4446 66.4098 23.6197 66.3756 23.78C66.3541 23.8952 66.2691 24.0563 66.1755 24.0806C66.0734 24.1097 65.9089 24.0262 65.8143 23.9641C65.6109 23.8259 65.4835 23.5588 65.4518 23.3369C65.391 22.8971 65.3576 22.4368 65.4321 22.0041C65.593 21.045 66.0459 20.1917 66.6584 19.4137C67.1807 18.7506 67.9085 18.3986 68.7363 18.2309C69.2784 18.1281 69.8232 18.0673 70.4915 17.9657Z" fill="#EACEFF"/>
<path d="M11.274 56.9727C11.1562 56.3261 11.0709 55.7763 10.9533 55.2335C10.7578 54.3122 10.5218 53.4106 9.93057 52.6239C9.32991 51.8263 8.51668 51.4712 7.5271 51.6522C6.91969 51.7643 6.34568 52.0333 5.76622 52.2516C5.54013 52.3381 5.33587 52.4868 5.02023 52.6622C5.18184 52.1683 5.31513 51.7822 5.43137 51.3912C5.71965 50.4369 6.04898 49.4931 6.26842 48.5259C6.57612 47.202 5.94734 46.3349 4.54126 46.0865C3.98981 45.9894 3.40806 46.0201 2.83857 45.9984C2.66727 45.9929 2.49713 46.0109 2.2929 46.019C2.89379 45.2706 3.47613 44.5673 4.02505 43.8476C5.30481 42.167 4.17245 40.9697 2.69654 40.648C2.30182 40.5619 1.87697 40.5667 1.46669 40.5662C1.19228 40.5747 0.953275 40.7202 0.966472 41.0092C0.97537 41.2711 1.21136 41.3662 1.46789 41.3962C1.72061 41.4292 1.97846 41.446 2.22158 41.5049C2.50574 41.5743 2.79304 41.6473 3.05799 41.7685C3.80238 42.1106 3.98602 42.5891 3.58705 43.2823C3.30661 43.7722 2.94922 44.2249 2.60259 44.6752C2.28013 45.0943 1.93433 45.5012 1.58853 45.9081C1.41306 46.1197 1.24389 46.3385 1.36334 46.6171C1.49967 46.9374 1.81826 46.943 2.11219 46.9496C2.4864 46.9603 2.85895 46.9172 3.23116 46.9477C3.70136 46.9805 4.17403 47.0235 4.62683 47.1249C5.24066 47.2645 5.45809 47.5453 5.39461 48.1452C5.33379 48.7186 5.23688 49.3021 5.07941 49.86C4.73564 51.0535 4.3515 52.2299 3.96354 53.4094C3.87248 53.6889 3.85175 53.9313 4.09551 54.1241C4.32603 54.3091 4.57231 54.2311 4.80685 54.0952C5.22395 53.852 5.6361 53.5884 6.06512 53.3664C6.44216 53.1731 6.83311 52.9812 7.23828 52.8574C8.32023 52.5242 8.99412 52.7997 9.5562 53.7376C9.98028 54.4422 10.2479 55.2027 10.4143 55.9943C10.5362 56.5642 10.6189 57.1406 10.7161 57.7117C10.7665 58.0141 10.8195 58.3268 11.2009 58.405C11.5622 58.4747 11.782 58.2404 11.9848 58.0011C12.0687 57.8983 12.1363 57.784 12.207 57.6733C12.3452 57.4483 12.5005 57.2282 12.6154 56.991C13.4821 55.2327 15.0375 54.7585 16.9062 54.9052C17.2506 54.9332 17.5882 55.0643 17.926 55.1586C18.0933 55.204 18.2522 55.2987 18.4215 55.3242C18.5421 55.3452 18.73 55.3255 18.7866 55.2503C18.8508 55.1692 18.8264 54.9929 18.7984 54.8867C18.7337 54.6566 18.516 54.4493 18.3091 54.3435C17.8985 54.1355 17.4581 53.9448 17.0072 53.8603C16.0092 53.669 15.013 53.7758 14.035 54.0516C13.2013 54.2869 12.6015 54.8146 12.1476 55.4961C11.8572 55.9449 11.6072 56.4107 11.274 56.9727Z" fill="#EACEFF"/>
</svg>
